<svg xmlns="http://www.w3.org/2000/svg" viewBox="0 0 241 194">
  <path fill-rule="evenodd" d="M96.1344 193.911C61.1312 193.911 32.6597 178.256 15.9721 149.829C1.19788 124.912 -0.00585938 97.9229 -0.00585938 67.7662C-0.00585938 49.8876 5.37293 34.3215 15.5413 22.7466C24.8861 12.1157 38.1271 5.22907 52.8317 3.35378C70.2858 1.14271 91.9848 0.958984 114.545 0.958984C151.259 0.958984 161.63 1.4088 176.075 2.85328C195.29 4.76026 211.458 11.932 222.824 23.5955C234.368 35.4428 240.469 51.2624 240.469 69.3627V72.9994C240.469 103.885 219.821 129.733 191.046 136.759C188.898 141.827 186.237 146.871 183.089 151.837L183.006 151.964C172.869 167.632 149.042 193.918 103.401 193.918H96.1281L96.1344 193.911Z M54.5321 82.3198C54.5321 95.732 62.0332 107.326 71.5807 116.424C77.9478 122.562 87.9515 128.93 94.7685 133.022C96.8147 134.157 98.8611 134.841 101.136 134.841C103.866 134.841 106.134 134.157 107.959 133.022C114.782 128.93 124.779 122.562 130.919 116.424C140.694 107.332 148.195 95.7383 148.195 82.3198C148.195 67.7673 137.286 54.8115 121.599 54.8115C112.28 54.8115 105.912 59.5882 101.136 66.1772C96.8147 59.582 90.2259 54.8115 80.9001 54.8115C64.9855 54.8115 54.5256 67.7673 54.5256 82.3198"/>
</svg>
